<svg width="15" height="18" viewBox="0 0 15 18" fill="#a5a5a5"  class="IconBase" 
xmlns="http://www.w3.org/2000/svg"><path d="M5.772 3.4a1.7 1.7 0 1 
0 0-3.4 1.7 1.7 0 0 0 0 3.4zm8.17 11.265l-2.504-3.44-.177-.244a1.1 1.1 
0 0 0-.23-.234.643.643 0 0 0-.485-.22H7.472V9.66H9.68a.569.569 0 0 
0 .571-.572.572.572 0 0 0-.571-.571H7.473V5.824a1.7 1.7 0 1 0-3.4 
0v.9A5.765 5.765 0 0 0 1.686 8.16 5.753 5.753 0 0 0 0 12.237a5.735 
5.735 0 0 0 1.688 4.076 5.743 5.743 0 0 0 4.077 1.688 5.736 5.736 0 0 
0 4.076-1.688 5.74 5.74 0 0 0 1.235-1.832l.002-.007 1.082 1.488a1.102 
1.102 0 1 0 1.782-1.297zm-8.179 2.22a4.655 4.655 0 0 1-4.649-4.648 
4.658 4.658 0 0 1 2.958-4.332v2.621l-.002.223v.34l.001.081c0 
.862.699 1.56 1.56 1.56h4.176l.464.638a4.652 4.652 0 0 1-4.508 
3.518z"></path></svg>