<svg width="32" height="32" viewBox="0 0 32 32" fill="#bd257f"
class="IconBase" xmlns="http://www.w3.org/2000/svg"><path opacity="0.2" fill-rule="evenodd" clip-rule="evenodd" d="M26
5H7V11H4V27H28V11H26V5Z"></path><path fill-rule="evenodd" cliprule="evenodd" d="M24 5.3H8C7.6134 5.3 7.3 5.6134 7.3
6V10.3223C7.63435 10.3726 7.9416 10.5057 8.20021 10.7C8.20022
10.7 8.20022 10.7 8.20023 10.7C8.68588 11.0649 9 11.6458 9
12.3V22H23V12.3C23 11.6458 23.3141 11.0649 23.7998
10.7C24.0584 10.5057 24.3656 10.3726 24.7 10.3223V6C24.7 5.6134
24.3866 5.3 24 5.3ZM26 10.3V6C26 4.89543 25.1046 4 24
4H8C6.89543 4 6 4.89543 6 6V10.3H5C3.89543 10.3 3 11.1954 3 12.3V22V23.3V26C3 27.1046 3.89543 28 5 28H27C28.1046 28 29
27.1046 29 26V23.3V22V12.3C29 11.1954 28.1046 10.3 27
10.3H26ZM4.3 12.3C4.3 11.9134 4.6134 11.6 5 11.6H7C7.3866 11.6
7.7 11.9134 7.7 12.3V22H4.3V12.3ZM27.7 12.3V22L24.3
22V12.3C24.3 11.9134 24.6134 11.6 25 11.6H27C27.3866 11.6 27.7
11.9134 27.7 12.3ZM4.3 23.3H27.7V26C27.7 26.3866 27.3866 26.7 27
26.7H5C4.6134 26.7 4.3 26.3866 4.3 26V23.3Z"></path></svg>
